<svg width="27" height="29" viewBox="0 0 27 29" fill="none" xmlns="http://www.w3.org/2000/svg">
<path fill-rule="evenodd" clip-rule="evenodd" d="M3.16671 13.5001C3.16671 10.0204 5.62346 6.76149 8.90816 4.82528C12.2458 2.85807 15.8057 2.59587 17.8788 4.18978C18.4885 4.65866 18.8256 5.42978 19.1007 6.57937C19.1662 6.85664 19.229 7.14382 19.2893 7.44091L19.3087 7.53907C19.3629 7.80257 19.4197 8.0777 19.4817 8.34637C19.6174 8.94312 19.7969 9.60186 20.094 10.1999C20.5396 11.0976 21.179 11.8597 21.7344 12.5055L21.8868 12.6812C22.41 13.2883 22.8608 13.8114 23.2172 14.3927C23.5892 14.9972 23.8308 15.6249 23.8721 16.3754C23.9135 17.1362 23.7546 18.1191 23.1695 19.4327C21.5032 23.1837 16.7047 24.6498 11.8906 23.4989C7.16054 22.3674 3.16671 18.8528 3.16671 13.5001ZM19.4546 2.14249C16.1454 -0.402093 11.3094 0.411657 7.59712 2.59974C3.83192 4.81882 0.583374 8.79716 0.583374 13.5001C0.583374 20.417 5.79783 24.6989 11.2913 26.0112C16.6995 27.3042 23.1385 25.8639 25.5306 20.4829C26.2372 18.8902 26.52 17.4965 26.4516 16.2346C26.3818 14.9623 25.9607 13.9225 25.4182 13.039C24.9455 12.2704 24.3591 11.5897 23.8553 11.0085L23.6952 10.8225C23.1281 10.1637 22.6915 9.62382 22.4061 9.05032C22.2511 8.73516 22.1258 8.32053 22.0005 7.77157C21.9441 7.52026 21.8903 7.26837 21.839 7.01595L21.8184 6.91778C21.7564 6.61812 21.6892 6.29907 21.613 5.97874C21.3159 4.73357 20.8135 3.18874 19.4546 2.14249ZM10.9167 13.5001C10.9167 12.815 11.1889 12.1579 11.6733 11.6734C12.1578 11.189 12.8149 10.9168 13.5 10.9168C14.1852 10.9168 14.8423 11.189 15.3267 11.6734C15.8112 12.1579 16.0834 12.815 16.0834 13.5001C16.0834 14.1853 15.8112 14.8423 15.3267 15.3268C14.8423 15.8113 14.1852 16.0834 13.5 16.0834C12.8149 16.0834 12.1578 15.8113 11.6733 15.3268C11.1889 14.8423 10.9167 14.1853 10.9167 13.5001ZM13.5 8.33345C12.1298 8.33345 10.8156 8.87779 9.84665 9.84673C8.87772 10.8157 8.33337 12.1298 8.33337 13.5001C8.33337 14.8704 8.87772 16.1846 9.84665 17.1535C10.8156 18.1224 12.1298 18.6668 13.5 18.6668C14.8703 18.6668 16.1845 18.1224 17.1534 17.1535C18.1224 16.1846 18.6667 14.8704 18.6667 13.5001C18.6667 12.1298 18.1224 10.8157 17.1534 9.84673C16.1845 8.87779 14.8703 8.33345 13.5 8.33345Z" fill="#FDF7E1"/>
</svg>
