<svg width="27" height="29" viewBox="0 0 27 29" fill="none" xmlns="http://www.w3.org/2000/svg">
<path fill-rule="evenodd" clip-rule="evenodd" d="M3.16665 13.5001C3.16665 10.0204 5.6234 6.76149 8.9081 4.82528C12.2458 2.85807 15.8056 2.59587 17.8787 4.18978C18.4884 4.65866 18.8255 5.42978 19.1006 6.57937C19.1661 6.85664 19.229 7.14382 19.2892 7.44091L19.3086 7.53907C19.3629 7.80257 19.4197 8.0777 19.4817 8.34637C19.6173 8.94312 19.7969 9.60186 20.0939 10.1999C20.5396 11.0976 21.1789 11.8597 21.7344 12.5055L21.8868 12.6812C22.4099 13.2883 22.8607 13.8114 23.2172 14.3927C23.5892 14.9972 23.8307 15.6249 23.8721 16.3754C23.9134 17.1362 23.7545 18.1191 23.1694 19.4327C21.5031 23.1837 16.7046 24.6498 11.8906 23.4989C7.16048 22.3674 3.16665 18.8528 3.16665 13.5001ZM19.4546 2.14249C16.1453 -0.402093 11.3093 0.411657 7.59706 2.59974C3.83185 4.81882 0.583313 8.79716 0.583313 13.5001C0.583313 20.417 5.79777 24.6989 11.2912 26.0112C16.6994 27.3042 23.1384 25.8639 25.5306 20.4829C26.2371 18.8902 26.52 17.4965 26.4515 16.2346C26.3818 14.9623 25.9607 13.9225 25.4182 13.039C24.9454 12.2704 24.359 11.5897 23.8553 11.0085L23.6951 10.8225C23.1281 10.1637 22.6915 9.62382 22.406 9.05032C22.251 8.73516 22.1257 8.32053 22.0004 7.77157C21.944 7.52026 21.8902 7.26837 21.839 7.01595L21.8183 6.91778C21.7563 6.61812 21.6891 6.29907 21.6129 5.97874C21.3159 4.73357 20.8134 3.18874 19.4546 2.14249ZM10.9166 13.5001C10.9166 12.815 11.1888 12.1579 11.6733 11.6734C12.1578 11.189 12.8148 10.9168 13.5 10.9168C14.1851 10.9168 14.8422 11.189 15.3267 11.6734C15.8111 12.1579 16.0833 12.815 16.0833 13.5001C16.0833 14.1853 15.8111 14.8423 15.3267 15.3268C14.8422 15.8113 14.1851 16.0834 13.5 16.0834C12.8148 16.0834 12.1578 15.8113 11.6733 15.3268C11.1888 14.8423 10.9166 14.1853 10.9166 13.5001ZM13.5 8.33345C12.1297 8.33345 10.8155 8.87779 9.84659 9.84673C8.87766 10.8157 8.33331 12.1298 8.33331 13.5001C8.33331 14.8704 8.87766 16.1846 9.84659 17.1535C10.8155 18.1224 12.1297 18.6668 13.5 18.6668C14.8703 18.6668 16.1844 18.1224 17.1534 17.1535C18.1223 16.1846 18.6666 14.8704 18.6666 13.5001C18.6666 12.1298 18.1223 10.8157 17.1534 9.84673C16.1844 8.87779 14.8703 8.33345 13.5 8.33345Z" fill="#FDF7E1"/>
</svg>
