<svg width="13" height="29" viewBox="0 0 13 29" fill="none" xmlns="http://www.w3.org/2000/svg">
<path d="M9.83775 4.72578C9.70389 4.48372 9.50681 4.28255 9.26755 4.14375C9.02829 4.00494 8.75583 3.93371 8.47925 3.93766H4.576C4.28534 3.93503 3.99972 4.01366 3.75136 4.16468C3.503 4.31571 3.30177 4.53312 3.17038 4.79241C2.25063 6.63516 0.196626 11.0925 0.0130006 14.4937L0.011096 14.4983L0.00649953 14.5002L0.00190306 14.5021L0 14.5067V25.0627C0 25.9246 0.34241 26.7513 0.951904 27.3608C1.5614 27.9702 2.38805 28.3127 3.25 28.3127H9.75C10.612 28.3127 11.4386 27.9702 12.0481 27.3608C12.6576 26.7513 13 25.9246 13 25.0627V14.505L12.9951 14.5002L12.9903 14.4953C12.8278 10.6115 10.7672 6.42716 9.83775 4.72578Z" stroke="#FDF7E1"/>
<path d="M10.5625 0.6875H2.4375C1.98877 0.6875 1.625 1.05127 1.625 1.5V3.125C1.625 3.57373 1.98877 3.9375 2.4375 3.9375H10.5625C11.0112 3.9375 11.375 3.57373 11.375 3.125V1.5C11.375 1.05127 11.0112 0.6875 10.5625 0.6875Z" stroke="#FDF7E1"/>
<path d="M3.25 15.3125V24.25" stroke="#FDF7E1" stroke-linecap="round"/>
</svg>
